<?xml version="1.0" encoding="UTF-8"?><svg id="_레이어_2" xmlns="http://www.w3.org/2000/svg" xmlns:xlink="http://www.w3.org/1999/xlink" viewBox="0 0 16 16"><defs><linearGradient id="linear-gradient" x1="0" y1="8.49" x2="12.82" y2="8.49" gradientUnits="userSpaceOnUse"><stop offset="0" stop-color="#efc334"/><stop offset="1" stop-color="#d13429"/></linearGradient><linearGradient id="linear-gradient-2" x1="1.26" y1="6.34" x2="14.18" y2="6.34" xlink:href="#linear-gradient"/><linearGradient id="linear-gradient-3" x1="3.18" y1="7.42" x2="16" y2="7.42" xlink:href="#linear-gradient"/><linearGradient id="linear-gradient-4" x1="1.48" y1="9.54" x2="14.76" y2="9.54" xlink:href="#linear-gradient"/></defs><g id="_레이어_1-2"><g><path d="m2.23,2.21s-3.93,5.99.93,10.09c.93.79,4.83,2.75,7.51-.32,2.66-3.06.19-6.02-.93-6.48,0,0,1.37-.04,2.29,1.25,1.21,1.71,1.45,5.37-2.24,7.36-3.68,1.99-8.53-.69-9.51-4.4-.84-3.16.37-5.93,1.96-7.5Z" fill="url(#linear-gradient)"/><path d="m14.18,2.48s-5.87-4.18-10.23.46c-.84.89-3,4.68-.02,7.48,2.96,2.79,6.07.46,6.58-.63,0,0-.02,1.36-1.37,2.22-1.78,1.13-5.49,1.19-7.33-2.57C-.01,5.69,2.92.99,6.7.18c3.23-.69,5.96.64,7.48,2.29Z" fill="url(#linear-gradient-2)"/><path d="m13.8,13.74s3.92-6.3-1.35-10.48c-.94-.75-4.98-2.29-7.35.93-2.36,3.21.31,5.9,1.45,6.26,0,0-1.34.15-2.35-1.04-1.33-1.58-1.87-5.13,1.59-7.38,3.46-2.25,8.33-.2,9.72,3.52,1.12,3.01.25,6.19-1.71,8.18Z" fill="url(#linear-gradient-3)"/><path d="m1.48,13.01s5.8,4.78,10.64-.05c.86-.86,2.92-4.78-.01-7.6-2.91-2.81-5.94-.43-6.44.69,0,0,.01-1.39,1.33-2.26,1.74-1.16,5.36-1.25,7.18,2.55,1.82,3.8-.84,8.51-4.73,9.44-3.15.76-6.22-.53-7.96-2.77Z" fill="url(#linear-gradient-4)"/></g></g></svg>